<?xml version="1.0" encoding="UTF-8"?>
<svg id="Calque_1" data-name="Calque 1" xmlns="http://www.w3.org/2000/svg" viewBox="0 0 454.65 394.7">
  <defs>
    <style>
      .cls-1 {
        fill: #073243;
      }

      .cls-2 {
        fill: #d95216;
      }

      .cls-3 {
        fill: none;
      }

      .cls-4 {
        fill: #113f59;
      }

      .cls-5 {
        fill: #f3f3f3;
      }

      .cls-6 {
        fill: #ff6344;
      }
    </style>
  </defs>
  <path class="cls-3" d="m33.52,257.44c6.23,31.03,23.02,54.77,46.99,70.31l-27.57-183.48c-18.8,38.28-26.52,77.81-19.42,113.16Z"/>
  <path class="cls-6" d="m80.51,327.76c45.44,29.47,116.69,29.5,190.89-6.11,43.57-20.91,81.68-51.13,111.22-85.43l14.1-93.81H53.86c-.31.63-.61,1.25-.91,1.88l27.57,183.48Z"/>
  <path class="cls-4" d="m271.4,321.65c-74.2,35.61-145.45,35.58-190.89,6.11-23.97-15.55-40.76-39.28-46.99-70.31-7.1-35.35.62-74.88,19.42-113.16l-.28-1.88h1.2c1.48-2.95,3.01-5.89,4.61-8.82C14.65,187.16-8.06,249.83,2.61,303.02c16.03,79.83,101.88,111.37,200.31,79.28,12.37-4.03,24.92-9.01,37.57-15.08,60.43-29.01,110.56-75.8,141.5-126.78l.64-4.23c-29.54,34.31-67.65,64.52-111.22,85.43Z"/>
  <path class="cls-4" d="m52.95,144.28c.31-.63.6-1.26.91-1.88h-1.2l.28,1.88Z"/>
  <g>
    <path class="cls-4" d="m229.99,323.99c-4.86,0-9.07-2.79-10.96-7.28l-24.06-56.91-53.58-8.77c-5.42-.89-9.42-5.16-9.94-10.63-.53-5.46,2.58-10.42,7.73-12.32l116.06-42.97c1.34-.5,2.75-.75,4.16-.75,3.63,0,7.15,1.72,9.4,4.62,2.27,2.91,3.04,6.65,2.13,10.24l-29.37,115.78c-1.36,5.38-6.01,8.99-11.57,8.99h0Z"/>
    <path class="cls-5" d="m259.4,191.11c3.19,0,5.85,3.04,4.99,6.44l-29.37,115.79c-.65,2.56-2.83,3.9-5.02,3.9-1.92,0-3.84-1.03-4.74-3.15l-24.4-57.72c-.69-1.63-2.17-2.8-3.92-3.09l-54.45-8.91c-5.23-.86-5.93-8.1-.96-9.94l116.06-42.97c.61-.23,1.22-.33,1.81-.33m0-13.52c-2.22,0-4.41.39-6.51,1.17l-116.06,42.98c-8.07,2.99-12.93,10.75-12.11,19.31.83,8.56,7.09,15.25,15.58,16.64l49.9,8.17,22.61,53.48c2.93,6.93,9.68,11.41,17.19,11.41,8.57,0,16.02-5.79,18.12-14.09l29.37-115.79c1.43-5.63.21-11.48-3.35-16.05-3.52-4.53-9.03-7.23-14.74-7.23h0Z"/>
  </g>
  <path class="cls-2" d="m235.24,381.13s79.03-33.65,135.97-100c43.82-51.07,46.87-96.86,46.82-97.01,15.88,49.97-5.72,101.51-41.12,137.37-18.1,18.33-39.86,33.26-63.58,43.33-11.45,4.86-23.19,8.11-35.3,10.86-12.49,2.84-42.8,5.45-42.8,5.45Z"/>
  <path class="cls-4" d="m409.29,340.24s24.81-50.01,26.76-102.14c1.5-40.12-14.37-59.05-14.45-59.08,26.45,11.63,35.68,41.48,32.43,71.82-1.66,15.51-6.35,31.45-13.81,46.45-3.6,7.24-7.95,14-12.66,20.74-4.86,6.96-18.27,22.21-18.27,22.21Z"/>
  <path class="cls-1" d="m17.41,105.85v36.72c0,27.21,23.2,49.28,51.82,49.28h0c28.62,0,51.82-22.06,51.82-49.28v-36.72H17.41Z"/>
  <path class="cls-2" d="m121.05,105.85v36.72c0,27.21,23.2,49.28,51.82,49.28h0c28.62,0,51.82-22.06,51.82-49.28v-36.72h-103.64Z"/>
  <path class="cls-1" d="m224.69,105.85v36.72c0,27.21,23.2,49.28,51.82,49.28h0c28.62,0,51.82-22.06,51.82-49.28v-36.72h-103.64Z"/>
  <path class="cls-2" d="m328.33,105.85v36.72c0,27.21,23.2,49.28,51.82,49.28h0c28.62,0,51.82-22.06,51.82-49.28v-36.72h-103.64Z"/>
  <polygon class="cls-4" points="111.36 0 17.41 105.85 121.05 105.85 164.8 0 111.36 0"/>
  <polygon class="cls-4" points="220.66 0 224.69 105.85 328.33 105.85 278.09 0 220.66 0"/>
  <polygon class="cls-2" points="164.8 0 121.05 105.85 224.69 105.85 220.66 0 164.8 0"/>
  <polygon class="cls-2" points="326.13 0 278.09 0 328.33 105.85 431.97 105.85 326.13 0"/>
</svg>