<?xml version="1.0" encoding="UTF-8"?>
<svg id="OBJECTS" xmlns="http://www.w3.org/2000/svg" viewBox="0 0 459.89 109.68">
  <defs>
    <style>
      .cls-1 {
        fill: #294159;
      }

      .cls-2 {
        fill: #f4f4f4;
      }

      .cls-3 {
        fill: #203544;
      }

      .cls-4 {
        fill: tomato;
      }

      .cls-5 {
        fill: #be5321;
      }

      .cls-6 {
        fill: none;
      }
    </style>
  </defs>
  <g>
    <path class="cls-4" d="m126.03,70.94l5.85-7.32c3.41,2.92,7.61,4.91,11.98,4.91s6.32-1.75,6.32-4.05c0-3.39-2.68-4.21-6.94-6.07l-5.87-2.62c-4.99-1.98-9.55-5.98-9.55-12.84,0-7.8,6.72-14.03,16.51-14.03,5.42,0,10.89,2.12,14.96,6.17l-5.14,6.72c-3.17-2.38-5.98-3.68-10.38-3.68-3.36,0-5.64,1.45-5.64,4.21s3.02,3.87,7.34,5.56l5.51,2.44c5.9,2.31,9.62,6.16,9.62,12.8,0,7.83-6.28,14.61-17.43,14.61-6.09,0-12.37-2.33-17.15-6.8Z"/>
    <path class="cls-4" d="m167.34,53.12c0-15.73,7.39-24.19,18.12-24.19s18.12,8.46,18.12,24.19-7.39,24.62-18.12,24.62-18.12-8.52-18.12-24.62Zm25.78,0c0-9.78-2.97-14.99-7.66-14.99s-7.67,5.2-7.67,14.99,2.97,15.42,7.67,15.42,7.66-5.26,7.66-15.42Z"/>
    <path class="cls-4" d="m211.3,58.75v-28.96h10.21v30.04c0,5.64,1.98,8.71,6.23,8.71s6.37-3.07,6.37-8.71v-30.04h9.84v28.96c0,12.23-5.26,18.99-16.2,18.99s-16.44-6.77-16.44-18.99Z"/>
    <path class="cls-4" d="m252.07,53.6c0-15.73,9.16-24.67,20.86-24.67,6.06,0,10.3,2.91,13.16,5.99l-5.61,6.59c-1.94-2.02-3.99-3.38-7.55-3.38-5.91,0-10.34,5.68-10.34,15.11s3.65,15.3,10.75,15.3c1.68,0,3.41-.49,4.37-1.39v-8.13h-6.54v-8.69h15.67v21.71c-2.98,2.93-8.32,5.7-14.1,5.7-11.5,0-20.68-8.27-20.68-24.15Z"/>
    <path class="cls-4" d="m293.84,53.12c0-15.73,7.39-24.19,18.12-24.19s18.12,8.46,18.12,24.19-7.39,24.62-18.12,24.62-18.12-8.52-18.12-24.62Zm25.78,0c0-9.78-2.97-14.99-7.67-14.99s-7.66,5.2-7.66,14.99,2.97,15.42,7.66,15.42,7.67-5.26,7.67-15.42Z"/>
    <path class="cls-4" d="m337.8,58.75v-28.96h10.21v30.04c0,5.64,1.98,8.71,6.23,8.71s6.37-3.07,6.37-8.71v-30.04h9.84v28.96c0,12.23-5.26,18.99-16.2,18.99s-16.44-6.77-16.44-18.99Z"/>
    <path class="cls-4" d="m380.65,29.79h15.15c9.36,0,16.5,2.68,16.5,11.66,0,4.23-2.41,8.73-7.7,10.18v.29c6.44,1.24,9.81,4.79,9.81,11.08,0,9.58-7.51,13.87-17.32,13.87h-16.44V29.79Zm14.68,18.9c4.95,0,7.01-2.18,7.01-5.74s-2.2-4.87-6.93-4.87h-4.58v10.61h4.51Zm.93,19.9c5.55,0,8.2-2.1,8.2-6.39s-2.59-5.84-8.2-5.84h-5.43v12.23h5.43Z"/>
    <path class="cls-4" d="m432.35,29.79h12.22l14.03,47.08h-10.81l-5.82-23.84c-1.14-4.7-2.51-10.22-3.59-15.19h-.28c-1.1,4.97-2.35,10.48-3.5,15.19l-5.85,23.84h-10.43l14.03-47.08Zm-4.75,27.58h21.55v8.3h-21.55v-8.3Z"/>
  </g>
  <path class="cls-6" d="m8.75,67.22c1.63,8.1,6.01,14.3,12.27,18.36l-7.2-47.91c-4.91,9.99-6.92,20.32-5.07,29.55Z"/>
  <path class="cls-4" d="m21.02,85.58c11.86,7.7,30.47,7.7,49.84-1.6,11.38-5.46,21.33-13.35,29.04-22.31l3.68-24.5H14.06c-.08.16-.16.33-.24.49l7.2,47.91Z"/>
  <path class="cls-1" d="m70.87,83.99c-19.37,9.3-37.98,9.29-49.84,1.6-6.26-4.06-10.64-10.26-12.27-18.36-1.85-9.23.16-19.55,5.07-29.55l-.07-.49h.31c.39-.77.78-1.54,1.2-2.3C3.83,48.87-2.11,65.23.68,79.12c4.18,20.84,26.6,29.08,52.3,20.7,3.23-1.05,6.51-2.35,9.81-3.94,15.78-7.57,28.87-19.79,36.95-33.1l.17-1.1c-7.71,8.96-17.67,16.85-29.04,22.31Z"/>
  <path class="cls-1" d="m13.82,37.67c.08-.16.16-.33.24-.49h-.31l.07.49Z"/>
  <g>
    <path class="cls-1" d="m60.05,84.6c-1.27,0-2.37-.73-2.86-1.9l-6.28-14.86-13.99-2.29c-1.42-.23-2.46-1.35-2.6-2.77-.14-1.43.67-2.72,2.02-3.22l30.3-11.22c.35-.13.72-.2,1.09-.2.95,0,1.87.45,2.45,1.21.59.76.8,1.74.56,2.67l-7.67,30.23c-.36,1.4-1.57,2.35-3.02,2.35h0Z"/>
    <path class="cls-2" d="m67.73,49.9c.83,0,1.53.79,1.3,1.68l-7.67,30.23c-.17.67-.74,1.02-1.31,1.02-.5,0-1-.27-1.24-.82l-6.37-15.07c-.18-.43-.57-.73-1.02-.81l-14.22-2.33c-1.37-.22-1.55-2.11-.25-2.6l30.3-11.22c.16-.06.32-.09.47-.09m0-3.53c-.58,0-1.15.1-1.7.31l-30.3,11.22c-2.11.78-3.38,2.81-3.16,5.04.22,2.24,1.85,3.98,4.07,4.35l13.03,2.13,5.9,13.96c.76,1.81,2.53,2.98,4.49,2.98,2.24,0,4.18-1.51,4.73-3.68l7.67-30.23c.37-1.47.05-3-.87-4.19-.92-1.18-2.36-1.89-3.85-1.89h0Z"/>
  </g>
  <path class="cls-5" d="m61.42,99.52s20.64-8.79,35.5-26.11c11.44-13.33,12.24-25.29,12.23-25.33,4.15,13.05-1.49,26.51-10.74,35.87-4.73,4.79-10.41,8.68-16.6,11.31-2.99,1.27-6.06,2.12-9.22,2.84-3.26.74-11.18,1.42-11.18,1.42Z"/>
  <path class="cls-1" d="m106.87,88.84s6.48-13.06,6.99-26.67c.39-10.48-3.75-15.42-3.77-15.43,6.91,3.04,9.32,10.83,8.47,18.75-.43,4.05-1.66,8.21-3.61,12.13-.94,1.89-2.08,3.66-3.31,5.42-1.27,1.82-4.77,5.8-4.77,5.8Z"/>
  <path class="cls-3" d="m4.55,27.64v9.59c0,7.11,6.06,12.87,13.53,12.87h0c7.47,0,13.53-5.76,13.53-12.87v-9.59H4.55Z"/>
  <path class="cls-5" d="m31.61,27.64v9.59c0,7.11,6.06,12.87,13.53,12.87h0c7.47,0,13.53-5.76,13.53-12.87v-9.59h-27.06Z"/>
  <path class="cls-3" d="m58.67,27.64v9.59c0,7.11,6.06,12.87,13.53,12.87h0c7.47,0,13.53-5.76,13.53-12.87v-9.59h-27.06Z"/>
  <path class="cls-5" d="m85.73,27.64v9.59c0,7.11,6.06,12.87,13.53,12.87h0c7.47,0,13.53-5.76,13.53-12.87v-9.59h-27.06Z"/>
  <polygon class="cls-1" points="29.08 0 4.55 27.64 31.61 27.64 43.03 0 29.08 0"/>
  <polygon class="cls-1" points="57.62 0 58.67 27.64 85.73 27.64 72.61 0 57.62 0"/>
  <polygon class="cls-5" points="43.03 0 31.61 27.64 58.67 27.64 57.62 0 43.03 0"/>
  <polygon class="cls-5" points="85.16 0 72.61 0 85.73 27.64 112.79 27.64 85.16 0"/>
</svg>